<?xml version="1.0" encoding="UTF-8" standalone="no"?>
<!DOCTYPE svg PUBLIC "-//W3C//DTD SVG 1.1//EN" "http://www.w3.org/Graphics/SVG/1.1/DTD/svg11.dtd">
<svg width="100%" height="100%" viewBox="0 0 800 800" version="1.1" xmlns="http://www.w3.org/2000/svg" xmlns:xlink="http://www.w3.org/1999/xlink" xml:space="preserve" xmlns:serif="http://www.serif.com/" style="fill-rule:evenodd;clip-rule:evenodd;">
    <g transform="matrix(371.122,0,0,-371.122,399.865,498.467)">
        <g id="Light-Rays" serif:id="Light Rays">
            <path d="M-0,0.003L0.958,0.299C0.939,0.36 0.914,0.419 0.884,0.474L-0.003,0.007L0.731,0.689C0.686,0.736 0.637,0.779 0.585,0.817L-0.005,0.009L0.353,0.941C0.279,0.969 0.2,0.989 0.118,0.998L-0.008,0.012L-0.143,0.995C-0.221,0.984 -0.296,0.964 -0.368,0.935L-0.012,0.01L-0.595,0.809C-0.647,0.771 -0.695,0.727 -0.739,0.68L-0.014,0.006L-0.888,0.467C-0.923,0.401 -0.95,0.33 -0.97,0.256L-0.015,0.003L-0,0.003Z" style="fill:url(#_Radial1);fill-rule:nonzero;"/>
        </g>
    </g>
    <g id="Clouds" transform="matrix(1,0,0,1,-6800,-6779)">
        <g transform="matrix(-1.53e-05,-231.228,-231.228,1.53e-05,7213.74,7384.06)">
            <path d="M0.773,-1.107C0.682,-1.107 0.604,-1.161 0.568,-1.238C0.572,-1.21 0.574,-1.18 0.574,-1.15C0.574,-1.07 0.559,-0.997 0.534,-0.94C0.63,-0.926 0.705,-0.838 0.705,-0.731C0.705,-0.615 0.618,-0.521 0.509,-0.52C0.527,-0.488 0.537,-0.451 0.537,-0.412C0.537,-0.342 0.506,-0.28 0.457,-0.238C0.47,-0.21 0.478,-0.177 0.478,-0.141C0.478,-0.129 0.478,-0.118 0.476,-0.107C0.524,-0.06 0.554,0.005 0.554,0.077C0.554,0.169 0.506,0.249 0.434,0.295C0.458,0.334 0.471,0.38 0.471,0.429C0.471,0.515 0.428,0.592 0.363,0.638C0.379,0.666 0.389,0.698 0.389,0.733C0.389,0.776 0.374,0.816 0.348,0.848C0.348,0.849 0.349,0.849 0.349,0.85C0.374,0.83 0.405,0.818 0.439,0.818C0.527,0.818 0.598,0.898 0.598,0.997C0.598,1.03 0.59,1.061 0.576,1.088C0.59,1.085 0.604,1.083 0.619,1.083C0.716,1.083 0.794,1.161 0.794,1.258C0.794,1.34 0.737,1.41 0.66,1.428C0.629,1.505 0.549,1.56 0.456,1.56C0.336,1.56 0.238,1.468 0.238,1.356C0.238,1.267 0.298,1.192 0.382,1.164C0.322,1.138 0.214,0.944 0.201,0.918C0.201,0.918 0.025,0.653 0.049,0.622C-0.006,0.575 -0.029,-0.42 0.056,-0.42C0.064,-0.42 0.073,-0.42 0.08,-0.419C0.084,-0.541 0.231,-1.011 0.231,-1.15C0.231,-1.329 0.308,-1.474 0.403,-1.474C0.42,-1.474 0.437,-1.469 0.453,-1.46C0.473,-1.475 0.499,-1.484 0.526,-1.484C0.55,-1.484 0.572,-1.478 0.59,-1.466C0.632,-1.523 0.698,-1.56 0.773,-1.56C0.899,-1.56 1,-1.458 1,-1.333C1,-1.208 0.899,-1.107 0.773,-1.107Z" style="fill:url(#_Linear2);fill-rule:nonzero;"/>
        </g>
        <g transform="matrix(1,0,0,1,7574.41,7338.4)">
            <path d="M0,-133.196C0,-162.121 -23.448,-185.57 -52.373,-185.57C-81.299,-185.57 -104.746,-162.121 -104.746,-133.196C-104.746,-112.142 -92.317,-94.001 -74.4,-85.68C-80.895,-86.651 -87.746,-87.172 -94.827,-87.172C-113.301,-87.172 -130.211,-83.634 -143.28,-77.774C-146.46,-100.099 -166.891,-117.326 -191.639,-117.326C-218.43,-117.326 -240.169,-97.138 -240.428,-72.147C-247.873,-76.161 -256.387,-78.442 -265.438,-78.442C-281.5,-78.442 -295.877,-71.256 -305.556,-59.933C-312.023,-63.102 -319.781,-64.953 -328.126,-64.953C-330.779,-64.953 -333.371,-64.758 -335.884,-64.403C-346.695,-75.505 -361.796,-82.41 -378.516,-82.41C-399.728,-82.41 -418.335,-71.303 -428.874,-54.599C-437.884,-60.154 -448.492,-63.365 -459.853,-63.365C-479.857,-63.365 -497.527,-53.42 -508.224,-38.215C-514.625,-42.089 -522.095,-44.321 -530.081,-44.321C-540.174,-44.321 -549.446,-40.758 -556.768,-34.81C-556.883,-34.878 -557,-34.942 -557.116,-35.008C-552.578,-40.934 -549.919,-48.101 -549.919,-55.826C-549.919,-76.206 -568.394,-92.726 -591.183,-92.726C-598.883,-92.726 -606.085,-90.835 -612.254,-87.55C-611.451,-90.73 -611.021,-94.058 -611.021,-97.487C-611.021,-119.839 -629.14,-137.957 -651.492,-137.957C-670.595,-137.957 -686.597,-124.717 -690.846,-106.913C-708.658,-99.703 -721.322,-81.332 -721.322,-59.794C-721.322,-31.965 -700.183,-9.405 -674.107,-9.405C-653.685,-9.405 -636.293,-23.245 -629.711,-42.614C-623.767,-28.762 -579.021,-3.898 -572.927,-0.867C-572.927,-0.803 -511.701,39.78 -504.575,34.394C-493.734,46.929 -263.453,52.374 -263.453,32.653C-263.453,30.749 -263.605,28.881 -263.893,27.059C-235.465,26.24 -126.914,-7.818 -94.827,-7.818C-53.412,-7.818 -19.839,-25.582 -19.839,-47.494C-19.839,-51.514 -20.973,-55.395 -23.074,-59.052C-19.547,-63.804 -17.458,-69.688 -17.458,-76.062C-17.458,-81.472 -18.963,-86.532 -21.576,-90.844C-8.504,-100.367 0,-115.785 0,-133.196Z" style="fill:none;fill-rule:nonzero;stroke:rgb(225,234,249);stroke-width:5.56px;"/>
        </g>
        <g transform="matrix(0,96.8115,96.8115,0,7284.77,7306.78)">
            <ellipse cx="0.5" cy="-0" rx="0.5" ry="0.615" style="fill:url(#_Linear3);"/>
        </g>
        <g transform="matrix(0,-1,-1,0,7284.77,7295.67)">
            <ellipse cx="-59.515" cy="-0" rx="48.406" ry="59.515" style="fill:none;stroke:rgb(222,240,255);stroke-width:6.35px;"/>
        </g>
        <g transform="matrix(-1.53e-05,-254.725,-254.725,1.53e-05,7180.81,7494.84)">
            <path d="M0.849,-0.653C0.864,-0.628 0.872,-0.599 0.872,-0.569C0.872,-0.476 0.798,-0.402 0.706,-0.402C0.663,-0.402 0.624,-0.418 0.594,-0.444C0.545,-0.404 0.482,-0.38 0.413,-0.38C0.375,-0.38 0.339,-0.387 0.306,-0.401C0.307,-0.391 0.308,-0.382 0.308,-0.372C0.308,-0.35 0.304,-0.329 0.295,-0.31C0.344,-0.285 0.377,-0.234 0.377,-0.176C0.377,-0.141 0.365,-0.109 0.345,-0.084C0.443,-0.078 0.52,0.002 0.52,0.101C0.52,0.143 0.506,0.182 0.483,0.213C0.499,0.21 0.515,0.209 0.531,0.209C0.56,0.209 0.588,0.213 0.615,0.221C0.632,0.202 0.656,0.19 0.684,0.19C0.735,0.19 0.776,0.231 0.776,0.282C0.776,0.299 0.771,0.316 0.762,0.329C0.794,0.375 0.813,0.431 0.813,0.491C0.813,0.518 0.809,0.545 0.802,0.57C0.903,0.626 0.972,0.734 0.972,0.858C0.972,1.04 0.825,1.187 0.643,1.187C0.462,1.187 0.315,1.04 0.315,0.858C0.315,0.804 0.328,0.753 0.351,0.708C0.289,0.656 0.249,0.578 0.249,0.491C0.249,0.41 0.283,0.338 0.337,0.287C0.336,0.287 0.335,0.287 0.335,0.287C0.233,0.287 0.15,0.204 0.15,0.101C0.15,0.051 0.169,0.006 0.201,-0.027C0.129,-0.039 0.075,-0.101 0.075,-0.176C0.075,-0.197 0.079,-0.216 0.086,-0.234C0.035,-0.259 0,-0.312 0,-0.372C0,-0.457 0.069,-0.526 0.154,-0.526C0.157,-0.526 0.159,-0.526 0.162,-0.526C0.138,-0.568 0.125,-0.617 0.125,-0.668C0.125,-0.827 0.254,-0.956 0.413,-0.956C0.421,-0.956 0.43,-0.956 0.438,-0.955C0.462,-1.087 0.578,-1.187 0.717,-1.187C0.873,-1.187 1,-1.06 1,-0.903C1,-0.795 0.939,-0.701 0.849,-0.653Z" style="fill:url(#_Linear4);fill-rule:nonzero;"/>
        </g>
        <g transform="matrix(1,0,0,1,7483.15,7422.63)">
            <path d="M0,-110.301C0,-150.182 -32.33,-182.513 -72.212,-182.513C-99.869,-182.513 -123.891,-166.961 -136.02,-144.129C-142.326,-147.84 -149.67,-149.978 -157.517,-149.978C-180.963,-149.978 -199.97,-130.97 -199.97,-107.524C-199.97,-96.63 -195.862,-86.697 -189.117,-79.182C-199.374,-66.558 -205.524,-50.464 -205.524,-32.932C-205.524,-23.3 -203.666,-14.103 -200.294,-5.675C-202.634,-6.11 -205.043,-6.348 -207.509,-6.348C-213.14,-6.348 -218.489,-5.155 -223.33,-3.021C-229.738,-15.365 -242.63,-23.805 -257.501,-23.805C-266.349,-23.805 -274.493,-20.814 -280.992,-15.795C-282.394,-40.613 -302.957,-60.308 -328.126,-60.308C-338.802,-60.308 -348.647,-56.762 -356.556,-50.787C-355.866,-54.783 -355.503,-58.892 -355.503,-63.085C-355.503,-70.499 -356.627,-77.651 -358.713,-84.379C-353.829,-88.67 -350.742,-94.957 -350.742,-101.969C-350.742,-114.897 -361.222,-125.378 -374.151,-125.378C-378.583,-125.378 -382.726,-124.147 -386.258,-122.007C-397.895,-130.131 -412.048,-134.901 -427.317,-134.901C-434.357,-134.901 -441.158,-133.883 -447.585,-131.995C-461.833,-157.851 -489.346,-175.371 -520.955,-175.371C-567.19,-175.371 -604.672,-137.889 -604.672,-91.653C-604.672,-45.417 -567.19,-7.935 -520.955,-7.935C-507.125,-7.935 -494.08,-11.291 -482.585,-17.23C-469.412,-1.37 -449.545,8.729 -427.317,8.729C-406.865,8.729 -388.409,0.179 -375.33,-13.541C-375.331,-13.392 -375.341,-13.243 -375.341,-13.093C-375.341,12.983 -354.202,34.123 -328.126,34.123C-315.448,34.123 -303.947,29.116 -295.465,20.984C-292.456,39.24 -276.609,53.167 -257.501,53.167C-252.283,53.167 -247.31,52.123 -242.771,50.242C-236.372,63.254 -222.988,72.212 -207.509,72.212C-185.814,72.212 -168.229,54.626 -168.229,32.931C-168.229,32.269 -168.246,31.613 -168.278,30.959C-157.606,37.012 -145.27,40.47 -132.123,40.47C-91.585,40.47 -58.721,7.607 -58.721,-32.932C-58.721,-35.076 -58.819,-37.2 -58.999,-39.3C-25.429,-45.507 0,-74.933 0,-110.301Z" style="fill:none;fill-rule:nonzero;stroke:rgb(228,242,249);stroke-width:8.73px;"/>
        </g>
        <g transform="matrix(1,0,0,1,41.5106,-169.763)">
            <path d="M7133.45,7453.13C7130.81,7457.77 7128.26,7461.76 7125.8,7465.1C7118.33,7475.35 7110.57,7480.47 7102.51,7480.47C7090.94,7480.47 7085.16,7472.67 7085.16,7457.07C7085.16,7452.32 7085.79,7446.77 7087.05,7440.42C7088.3,7434.08 7090.25,7427.24 7092.89,7419.9C7095.54,7412.57 7098.54,7405.66 7101.91,7399.19C7099.73,7398.86 7098.05,7398.69 7096.86,7398.69C7096.13,7398.69 7095.34,7398.76 7094.48,7398.89C7093.62,7399.02 7092.91,7399.3 7092.35,7399.73C7091.79,7400.16 7091.34,7400.58 7091.01,7400.97C7090.68,7401.37 7090.35,7401.7 7090.02,7401.96C7089.69,7402.23 7089.23,7402.36 7088.63,7402.36C7087.57,7402.36 7086.73,7401.82 7086.1,7400.73C7085.48,7399.64 7085.16,7398.46 7085.16,7397.21C7085.16,7397.01 7085.19,7396.46 7085.26,7395.57C7085.33,7394.68 7086.05,7393.65 7087.44,7392.5C7088.83,7391.34 7091.14,7390.76 7094.38,7390.76C7097.75,7390.76 7101.55,7391.26 7105.78,7392.25C7113.58,7379.1 7120.15,7372.53 7125.5,7372.53C7127.68,7372.53 7129.93,7373.35 7132.24,7375C7134.56,7376.65 7136.14,7378.74 7137,7381.25C7137.27,7382.11 7137.4,7382.83 7137.4,7383.43C7137.4,7385.08 7136.31,7386.17 7134.13,7386.7C7132.08,7387.89 7129.8,7391.13 7127.29,7396.41L7129.07,7396.51C7132.77,7396.51 7135.45,7395.36 7137.1,7393.04C7137.7,7392.25 7138.39,7391.85 7139.18,7391.85C7139.78,7391.85 7140.34,7392.09 7140.87,7392.55C7142.19,7393.8 7142.85,7395.32 7142.85,7397.11C7142.85,7397.24 7142.8,7397.83 7142.7,7398.89C7142.6,7399.95 7141.66,7401.27 7139.88,7402.86C7138.09,7404.44 7135.42,7405.24 7131.85,7405.24C7129.07,7405.24 7126.4,7405 7123.82,7404.54C7121.9,7409.43 7120.25,7414.55 7118.86,7419.9C7116.48,7428.96 7115.29,7436.19 7115.29,7441.61C7115.29,7443.6 7115.49,7445.73 7115.89,7448.01C7116.28,7450.29 7117.64,7451.43 7119.95,7451.43C7123.92,7451.43 7129.77,7444.65 7137.51,7431.09C7137.86,7430.08 7138.24,7429.08 7138.64,7428.08C7142.11,7419.39 7146.98,7412.27 7153.26,7406.72C7159.53,7401.17 7166.31,7398.4 7173.58,7398.4C7181.38,7398.4 7186.43,7401.27 7188.74,7407.02C7189.8,7405.63 7190.86,7404.34 7191.91,7403.15C7194.95,7399.98 7198.59,7398.4 7202.82,7398.4C7205.92,7398.4 7208.2,7399.32 7209.66,7401.17C7210.25,7401.9 7210.55,7402.69 7210.55,7403.55C7210.55,7404.94 7209.89,7406.49 7208.57,7408.21C7205.86,7411.51 7203.02,7417.62 7200.04,7426.55C7197.53,7434.08 7196.28,7440.09 7196.28,7444.59C7196.28,7445.71 7196.43,7447.13 7196.72,7448.85C7197.02,7450.57 7198.23,7451.43 7200.34,7451.43C7202.65,7451.43 7205.15,7450.12 7207.82,7447.51C7210.5,7444.9 7212.98,7441.98 7215.26,7438.74C7217.54,7435.5 7219.34,7432.73 7220.66,7430.41L7235.23,7405.14C7230.74,7402.16 7228.49,7398.73 7228.49,7394.83C7228.49,7391.32 7229.8,7388.2 7232.41,7385.46C7235.02,7382.72 7237.97,7381.35 7241.28,7381.35C7243.33,7381.35 7244.98,7382.04 7246.23,7383.43C7247.16,7384.42 7247.62,7385.91 7247.62,7387.89C7247.62,7388.62 7247.49,7390 7247.22,7392.05C7246.96,7394.1 7245.37,7397.83 7242.47,7403.25C7244.98,7404.31 7247.69,7404.84 7250.59,7404.84L7253.86,7404.84C7255.72,7404.77 7257.9,7404.38 7260.41,7403.65C7262.65,7402.99 7264.64,7402.13 7266.36,7401.07C7267.68,7400.41 7269.01,7399.8 7270.37,7399.24C7271.72,7398.68 7273.29,7398.4 7275.08,7398.4C7278.18,7398.4 7280.46,7399.32 7281.92,7401.17C7282.51,7401.9 7282.81,7402.69 7282.81,7403.55C7282.81,7404.94 7282.16,7406.44 7280.88,7408.06C7279.59,7409.68 7278.17,7412.16 7276.61,7415.49C7275.06,7418.83 7273.62,7422.52 7272.3,7426.55C7269.79,7433.95 7268.53,7439.96 7268.53,7444.59C7268.53,7445.71 7268.68,7447.13 7268.98,7448.85C7269.28,7450.57 7270.45,7451.43 7272.5,7451.43C7274.88,7451.43 7277.41,7450.12 7280.08,7447.51C7282.76,7444.9 7285.24,7441.98 7287.52,7438.74C7289.75,7435.57 7291.49,7432.84 7292.74,7430.56C7293.72,7427.13 7294.86,7423.58 7296.19,7419.9C7298.83,7412.57 7301.84,7405.66 7305.21,7399.19C7303.03,7398.86 7301.34,7398.69 7300.15,7398.69C7299.43,7398.69 7298.64,7398.76 7297.78,7398.89C7296.92,7399.02 7296.21,7399.3 7295.65,7399.73C7295.08,7400.16 7294.64,7400.58 7294.31,7400.97C7293.98,7401.37 7293.65,7401.7 7293.32,7401.96C7292.99,7402.23 7292.52,7402.36 7291.93,7402.36C7290.87,7402.36 7290.03,7401.82 7289.4,7400.73C7288.77,7399.64 7288.46,7398.46 7288.46,7397.21C7288.46,7397.01 7288.49,7396.46 7288.56,7395.57C7288.62,7394.68 7289.35,7393.65 7290.74,7392.5C7292.13,7391.34 7294.44,7390.76 7297.68,7390.76C7301.05,7390.76 7304.85,7391.26 7309.08,7392.25C7316.87,7379.1 7323.45,7372.53 7328.8,7372.53C7330.98,7372.53 7333.23,7373.35 7335.54,7375C7337.85,7376.65 7339.44,7378.74 7340.3,7381.25C7340.56,7382.11 7340.7,7382.83 7340.7,7383.43C7340.7,7385.08 7339.61,7386.17 7337.43,7386.7C7335.38,7387.89 7333.1,7391.13 7330.59,7396.41L7332.37,7396.51C7336.07,7396.51 7338.75,7395.36 7340.4,7393.04C7340.99,7392.25 7341.69,7391.85 7342.48,7391.85C7343.07,7391.85 7343.64,7392.09 7344.16,7392.55C7345.49,7393.8 7346.15,7395.32 7346.15,7397.11C7346.15,7397.24 7346.1,7397.83 7346,7398.89C7345.9,7399.95 7344.96,7401.27 7343.17,7402.86C7341.39,7404.44 7338.71,7405.24 7335.15,7405.24C7332.37,7405.24 7329.69,7405 7327.12,7404.54C7325.2,7409.43 7323.55,7414.55 7322.16,7419.9C7319.78,7428.96 7318.59,7436.19 7318.59,7441.61C7318.59,7443.6 7318.79,7445.73 7319.19,7448.01C7319.58,7450.29 7320.94,7451.43 7323.25,7451.43C7327.28,7451.43 7333.26,7444.42 7341.19,7430.41L7348.33,7430.41L7345.06,7437.05C7339.37,7449.01 7334.05,7458.36 7329.1,7465.1C7321.63,7475.35 7313.87,7480.47 7305.81,7480.47C7294.24,7480.47 7288.46,7472.67 7288.46,7457.07C7288.46,7455.7 7288.51,7454.26 7288.62,7452.75C7285.83,7457.65 7283.17,7461.84 7280.63,7465.3C7273.1,7475.41 7265.16,7480.47 7256.84,7480.47C7246.93,7480.47 7241.9,7474.39 7241.77,7462.23C7241.77,7456.55 7242.57,7450.63 7244.15,7444.49C7247.46,7431.53 7252.41,7419.97 7259.02,7409.8C7256.44,7410.32 7253.73,7410.59 7250.89,7410.59C7250.36,7410.59 7249.11,7410.54 7247.12,7410.44C7245.14,7410.34 7242.7,7409.63 7239.79,7408.31L7227.9,7430.41L7227.8,7430.41L7223.83,7438.54C7220.66,7445.48 7216.88,7452.66 7212.48,7460.1C7208.09,7467.53 7202.92,7473.3 7196.97,7477.4C7194,7479.44 7189.87,7480.47 7184.58,7480.47C7176.12,7480.47 7171.4,7475.55 7170.41,7465.7C7164.72,7475.55 7157.72,7480.47 7149.39,7480.47C7145.03,7480.47 7141.59,7478.85 7139.08,7475.61C7135.32,7470.72 7133.43,7463.78 7133.43,7454.8C7133.43,7454.24 7133.44,7453.69 7133.45,7453.13ZM7164.26,7451.43C7167.3,7451.43 7170.34,7447.66 7173.38,7440.13C7175.56,7432.26 7178.43,7424.89 7182,7418.02C7182.14,7416.96 7182.2,7416.01 7182.2,7415.15C7182.2,7411.25 7181.11,7409.23 7178.93,7409.1C7176.49,7409.17 7174.06,7410.6 7171.65,7413.41C7169.23,7416.22 7167.07,7419.71 7165.15,7423.87C7161.58,7431.67 7159.8,7438.47 7159.8,7444.29C7159.8,7445.28 7159.95,7446.72 7160.25,7448.6C7160.54,7450.48 7161.88,7451.43 7164.26,7451.43ZM7036.3,7251.02C7026.39,7268.65 7016.24,7277.47 7005.86,7277.47C6994.1,7277.47 6988.22,7269.97 6988.22,7254.97C6988.22,7244.06 6991.16,7230.85 6997.04,7215.32C7003.19,7199.06 7010.52,7184.79 7019.05,7172.5C7028.17,7159.55 7035.77,7153.07 7041.85,7153.07C7044.09,7153.07 7046.21,7153.9 7048.19,7155.55C7050.7,7157.73 7051.96,7160.27 7051.96,7163.18C7051.96,7164.97 7050.93,7166.25 7048.88,7167.05C7046.5,7167.64 7043.63,7170.48 7040.26,7175.57C7034.51,7184.43 7029.22,7195.99 7024.4,7210.26C7020.37,7222.42 7018.35,7232.1 7018.35,7239.31C7018.35,7240.56 7018.5,7242.4 7018.8,7244.81C7019.1,7247.22 7020.6,7248.43 7023.31,7248.43C7027.22,7248.43 7033.06,7241.61 7040.82,7227.99C7043.17,7221.91 7046.28,7216.27 7050.17,7211.06C7058.63,7199.89 7068.61,7194.31 7080.11,7194.31C7084.67,7194.31 7088.07,7195.64 7090.32,7198.32C7092.56,7201 7093.69,7204.22 7093.69,7207.98L7093.69,7211.16C7093.69,7213.2 7092.51,7216.19 7090.17,7220.13C7087.82,7224.06 7084.32,7227.4 7079.66,7230.14C7075,7232.88 7069.17,7234.25 7062.16,7234.25L7062.16,7235.44C7062.16,7239.93 7063.24,7243.22 7065.39,7245.3C7067.53,7247.39 7070.36,7248.43 7073.86,7248.43C7077.96,7248.43 7082.17,7247.37 7086.5,7245.25C7090.83,7243.14 7094.79,7240.5 7098.39,7237.32C7101.8,7234.33 7104.51,7231.21 7106.52,7227.98C7106.86,7227.01 7107.23,7226.05 7107.61,7225.08C7111.08,7216.39 7115.95,7209.27 7122.23,7203.72C7128.51,7198.17 7135.28,7195.4 7142.55,7195.4C7150.35,7195.4 7155.4,7198.27 7157.72,7204.02C7158.78,7202.63 7159.83,7201.34 7160.89,7200.15C7163.93,7196.98 7167.56,7195.4 7171.79,7195.4C7174.9,7195.4 7177.18,7196.32 7178.63,7198.17C7179.23,7198.9 7179.53,7199.69 7179.53,7200.55C7179.53,7201.94 7178.86,7203.49 7177.54,7205.21C7174.83,7208.51 7171.99,7214.62 7169.02,7223.55C7166.51,7231.08 7165.25,7237.09 7165.25,7241.59C7165.25,7242.71 7165.4,7244.13 7165.7,7245.85C7165.99,7247.57 7167.2,7248.43 7169.32,7248.43C7171.63,7248.43 7174.12,7247.12 7176.8,7244.51C7179.48,7241.9 7181.95,7238.98 7184.23,7235.74C7186.51,7232.5 7188.31,7229.73 7189.64,7227.41C7189.97,7226.88 7190.3,7226.26 7190.63,7225.53C7195.19,7216.48 7199.65,7209.04 7204.01,7203.23C7211.34,7193.38 7218.71,7188.46 7226.11,7188.46C7229.68,7188.46 7232.57,7189.38 7234.78,7191.23C7237,7193.08 7238.14,7195.1 7238.2,7197.28C7238.2,7199.53 7237.41,7201.38 7235.82,7202.83C7234.7,7203.89 7233.22,7204.42 7231.36,7204.42L7228.09,7204.12C7227.1,7204.12 7226.28,7204.48 7225.62,7205.21C7225.22,7205.67 7225.02,7206.3 7225.02,7207.09C7225.02,7208.88 7226.9,7212.87 7230.67,7219.09C7232.32,7221.86 7233.98,7224.8 7235.63,7227.91C7239.39,7235.18 7241.28,7241.69 7241.28,7247.43C7241.28,7251.2 7240.72,7254.77 7239.59,7258.14C7245.7,7251.12 7252.44,7241.11 7259.82,7228.1C7260.18,7227.09 7260.55,7226.08 7260.95,7225.08C7264.42,7216.39 7269.3,7209.27 7275.57,7203.72C7281.85,7198.17 7288.62,7195.4 7295.89,7195.4C7303.69,7195.4 7308.75,7198.27 7311.06,7204.02C7312.12,7202.63 7313.17,7201.34 7314.23,7200.15C7317.27,7196.98 7320.9,7195.4 7325.13,7195.4C7328.24,7195.4 7330.52,7196.32 7331.97,7198.17C7332.57,7198.9 7332.86,7199.69 7332.86,7200.55C7332.86,7201.94 7332.2,7203.49 7330.88,7205.21C7328.17,7208.51 7325.33,7214.62 7322.36,7223.55C7319.85,7231.08 7318.59,7237.09 7318.59,7241.59C7318.59,7242.71 7318.74,7244.13 7319.04,7245.85C7319.34,7247.57 7320.54,7248.43 7322.66,7248.43C7324.97,7248.43 7327.46,7247.12 7330.14,7244.51C7332.82,7241.9 7335.29,7238.98 7337.57,7235.74C7339.85,7232.5 7341.65,7229.73 7342.98,7227.41L7343.03,7227.41C7347.95,7215.61 7352.56,7206.42 7356.85,7199.86C7358.84,7196.88 7361.74,7195.4 7365.57,7195.4C7371.06,7195.4 7373.8,7197.97 7373.8,7203.13C7373.8,7204.18 7373.67,7205.34 7373.41,7206.6C7380.61,7199.26 7387.65,7195.59 7394.52,7195.59C7397.49,7195.59 7400.17,7196.29 7402.55,7197.68C7406.18,7199.92 7408,7203.76 7408,7209.17C7408,7211.55 7407.64,7214.23 7406.91,7217.2C7403.54,7229.03 7401.85,7237.39 7401.85,7242.28C7401.85,7243.54 7402,7244.87 7402.3,7246.29C7402.6,7247.72 7403.54,7248.43 7405.12,7248.43C7409.14,7248.43 7415.1,7241.47 7422.99,7227.55C7423.96,7224.13 7425.11,7220.58 7426.44,7216.9C7429.08,7209.57 7432.09,7202.66 7435.45,7196.19C7433.28,7195.86 7431.59,7195.69 7430.4,7195.69C7429.67,7195.69 7428.88,7195.76 7428.02,7195.89C7427.16,7196.02 7426.45,7196.3 7425.89,7196.73C7425.33,7197.16 7424.88,7197.58 7424.55,7197.97C7424.22,7198.37 7423.89,7198.7 7423.56,7198.96C7423.23,7199.23 7422.77,7199.36 7422.17,7199.36C7421.12,7199.36 7420.27,7198.82 7419.65,7197.73C7419.02,7196.64 7418.7,7195.46 7418.7,7194.21C7418.7,7194.01 7418.74,7193.46 7418.8,7192.57C7418.87,7191.68 7419.6,7190.65 7420.98,7189.5C7422.37,7188.34 7424.68,7187.76 7427.92,7187.76C7431.29,7187.76 7435.09,7188.26 7439.32,7189.25C7447.12,7176.1 7453.69,7169.53 7459.05,7169.53C7461.23,7169.53 7463.47,7170.35 7465.79,7172C7468.1,7173.65 7469.69,7175.74 7470.54,7178.25C7470.81,7179.11 7470.94,7179.83 7470.94,7180.43C7470.94,7182.08 7469.85,7183.17 7467.67,7183.7C7465.62,7184.89 7463.34,7188.13 7460.83,7193.41L7462.61,7193.51C7466.32,7193.51 7468.99,7192.36 7470.64,7190.04C7471.24,7189.25 7471.93,7188.85 7472.73,7188.85C7473.32,7188.85 7473.88,7189.09 7474.41,7189.55C7475.73,7190.8 7476.39,7192.32 7476.39,7194.11C7476.39,7194.24 7476.34,7194.83 7476.24,7195.89C7476.15,7196.95 7475.2,7198.27 7473.42,7199.86C7471.64,7201.44 7468.96,7202.24 7465.39,7202.24C7462.61,7202.24 7459.94,7202 7457.36,7201.54C7455.44,7206.43 7453.79,7211.55 7452.4,7216.9C7450.03,7225.96 7448.84,7233.19 7448.84,7238.61C7448.84,7240.6 7449.03,7242.73 7449.43,7245.01C7449.83,7247.29 7451.18,7248.43 7453.49,7248.43C7457.53,7248.43 7463.51,7241.42 7471.44,7227.41L7478.57,7227.41L7475.3,7234.05C7469.62,7246.01 7464.3,7255.36 7459.34,7262.1C7451.88,7272.35 7444.11,7277.47 7436.05,7277.47C7424.49,7277.47 7418.7,7269.67 7418.7,7254.07C7418.7,7252.8 7418.75,7251.47 7418.84,7250.08C7415.93,7255.4 7413.24,7259.78 7410.77,7263.19C7403.84,7272.71 7396.63,7277.47 7389.17,7277.47C7379.65,7277.47 7374.89,7271.12 7374.89,7258.44C7374.89,7252.09 7376.05,7245.52 7378.36,7238.71C7383.52,7224.84 7386.09,7215.91 7386.09,7211.95C7386.09,7209.83 7385.27,7208.78 7383.61,7208.78C7381.7,7208.78 7379.04,7210.59 7375.64,7214.23C7372.23,7217.86 7369.28,7222.26 7366.76,7227.41C7362.27,7242.02 7360.02,7252.79 7360.02,7259.73L7360.22,7264.28C7360.22,7266.2 7359.79,7268.15 7358.93,7270.13C7358.07,7272.11 7356.6,7273.83 7354.52,7275.29C7352.44,7276.74 7349.78,7277.47 7346.54,7277.47C7341.45,7277.47 7337.82,7275.65 7335.64,7272.02C7333.99,7269.24 7333.16,7265.84 7333.16,7261.81C7333.16,7261.11 7333.19,7260.37 7333.26,7259.59C7329.21,7265.83 7324.55,7270.77 7319.28,7274.4C7316.31,7276.44 7312.18,7277.47 7306.9,7277.47C7298.44,7277.47 7293.71,7272.55 7292.72,7262.7C7287.04,7272.55 7280.03,7277.47 7271.71,7277.47C7267.35,7277.47 7263.91,7275.85 7261.4,7272.61C7257.63,7267.72 7255.75,7260.78 7255.75,7251.8C7255.75,7250.72 7255.77,7249.64 7255.82,7248.57C7255,7249.92 7254.16,7251.26 7253.32,7252.59C7248.2,7260.65 7242.02,7267.31 7234.78,7272.56C7227.55,7277.82 7218.55,7280.61 7207.77,7280.94C7199.65,7280.87 7193.48,7278.48 7189.29,7273.75C7185.09,7269.03 7182.99,7263.1 7182.99,7255.96C7182.99,7255.44 7183.01,7254.92 7183.03,7254.41C7182.51,7255.3 7181.99,7256.2 7181.46,7257.1C7177.06,7264.53 7171.89,7270.3 7165.94,7274.4C7162.97,7276.44 7158.84,7277.47 7153.56,7277.47C7145.1,7277.47 7140.37,7272.55 7139.38,7262.7C7133.7,7272.55 7126.69,7277.47 7118.37,7277.47C7114.01,7277.47 7110.57,7275.85 7108.06,7272.61C7104.29,7267.72 7102.41,7260.78 7102.41,7251.8C7102.41,7250.15 7102.47,7248.52 7102.58,7246.89C7099.24,7251.69 7095.65,7256.23 7091.8,7260.52C7080.77,7273.01 7069.57,7279.25 7058.2,7279.25C7052.45,7279.25 7047.89,7277.7 7044.52,7274.59C7039.04,7269.64 7036.3,7261.94 7036.3,7251.5C7036.3,7251.34 7036.3,7251.18 7036.3,7251.02ZM7062.96,7227.41C7065.14,7227.41 7067.39,7226.27 7069.7,7223.99C7072.01,7221.71 7073.99,7219.12 7075.65,7216.21C7077.89,7212.38 7079.02,7209.34 7079.02,7207.09C7079.02,7205.64 7078.39,7204.91 7077.13,7204.91C7074.75,7204.91 7072.14,7207.09 7069.3,7211.45C7066.46,7215.82 7064.35,7221.13 7062.96,7227.41ZM7133.24,7248.43C7136.28,7248.43 7139.32,7244.66 7142.35,7237.13C7144.53,7229.26 7147.41,7221.89 7150.98,7215.02C7151.11,7213.96 7151.18,7213.01 7151.18,7212.15C7151.18,7208.25 7150.09,7206.23 7147.9,7206.1C7145.46,7206.17 7143.03,7207.6 7140.62,7210.41C7138.21,7213.22 7136.04,7216.71 7134.13,7220.87C7130.56,7228.67 7128.78,7235.47 7128.78,7241.29C7128.78,7242.28 7128.92,7243.72 7129.22,7245.6C7129.52,7247.48 7130.86,7248.43 7133.24,7248.43ZM7196.77,7227.41L7192.93,7235.28C7194.77,7235.55 7195.68,7237.06 7195.68,7239.8L7195.48,7242.58C7195.48,7244.56 7196.16,7246.24 7197.52,7247.63C7198.87,7249.02 7200.6,7249.71 7202.72,7249.71C7209.66,7249.71 7213.13,7244.92 7213.13,7235.34C7213.13,7231.31 7212.76,7226.26 7212.04,7220.18C7211.57,7216.34 7211.24,7212.35 7211.05,7208.18C7206.02,7213.67 7201.3,7220.08 7196.87,7227.41L7196.77,7227.41ZM7286.57,7248.43C7289.61,7248.43 7292.65,7244.66 7295.69,7237.13C7297.88,7229.26 7300.75,7221.89 7304.32,7215.02C7304.45,7213.96 7304.52,7213.01 7304.52,7212.15C7304.52,7208.25 7303.43,7206.23 7301.24,7206.1C7298.8,7206.17 7296.37,7207.6 7293.96,7210.41C7291.55,7213.22 7289.38,7216.71 7287.47,7220.87C7283.9,7228.67 7282.11,7235.47 7282.11,7241.29C7282.11,7242.28 7282.26,7243.72 7282.56,7245.6C7282.86,7247.48 7284.2,7248.43 7286.57,7248.43ZM6883.75,7288.87C6878.33,7288.87 6873.77,7287.51 6870.07,7284.8C6866.37,7282.09 6863.63,7278.71 6861.84,7274.64C6860.06,7270.58 6859.16,7266.33 6859.16,7261.91C6859.16,7261.58 6859.2,7260.12 6859.26,7257.55C6859.33,7254.97 6860.45,7251.47 6862.64,7247.04C6864.02,7244.59 6865.41,7243.37 6866.8,7243.37C6868.12,7243.37 6869.47,7244.53 6870.86,7246.84C6873.24,7250.8 6876.81,7252.79 6881.57,7252.79C6887.91,7252.79 6894.82,7247.01 6902.28,7235.44C6907.31,7227.64 6914.05,7214.89 6922.5,7197.18C6928.91,7183.5 6935.39,7171.14 6941.93,7160.11C6940.28,7159.91 6938.53,7159.81 6936.68,7159.81C6925.84,7159.81 6917.48,7162.92 6911.6,7169.13C6907.44,7173.49 6905.36,7177.72 6905.36,7181.82C6905.36,7183.07 6905.59,7184.16 6906.05,7185.09C6906.71,7186.61 6907.83,7187.37 6909.42,7187.37C6909.95,7187.37 6910.48,7187.3 6911.01,7187.17C6911.86,7186.9 6912.62,7186.77 6913.28,7186.77C6915.66,7186.77 6916.85,7188.13 6916.85,7190.84C6916.59,7196.06 6914.54,7200.35 6910.71,7203.72C6907.27,7206.83 6903.24,7208.38 6898.61,7208.38C6894.32,7208.38 6890.82,7207.03 6888.11,7204.32C6884.47,7200.75 6882.66,7195.99 6882.66,7190.04C6882.66,7181.78 6886.13,7174.25 6893.07,7167.44C6902.85,7157.86 6917.71,7153.07 6937.67,7153.07C6940.71,7153.07 6943.62,7153.2 6946.39,7153.47C6953.26,7143.75 6959.87,7138.9 6966.22,7138.9C6968.4,7138.9 6970.51,7139.72 6972.56,7141.38C6975.07,7143.42 6976.33,7145.9 6976.33,7148.81C6976.33,7150.99 6975.04,7152.41 6972.46,7153.07C6970.21,7154.13 6968.1,7155.78 6966.12,7158.03C6975.96,7162.12 6983.03,7167.84 6987.33,7175.18C6991.1,7181.52 6992.98,7188.26 6992.98,7195.4C6992.98,7196.45 6992.8,7199.36 6992.43,7204.12C6992.07,7208.88 6989.39,7214.87 6984.4,7222.11C6979.42,7229.35 6972.56,7234.94 6963.84,7238.91C6957.43,7241.82 6950.16,7243.27 6942.03,7243.27C6939.06,7243.27 6935.98,7243.07 6932.81,7242.68C6929.38,7251.2 6925.4,7258.93 6920.87,7265.87C6916.34,7272.81 6911.06,7278.38 6905.01,7282.57C6898.96,7286.77 6891.88,7288.87 6883.75,7288.87ZM6936.68,7232.66C6945.2,7230.42 6952.17,7225.33 6957.59,7217.4C6963.67,7208.35 6966.71,7198.7 6966.71,7188.46C6966.71,7180.53 6964.27,7173.75 6959.38,7168.14C6955.41,7176.2 6950.75,7188.95 6945.4,7206.4C6942.69,7215.12 6939.78,7223.88 6936.68,7232.66ZM7030.35,7493.75C7022.02,7493.75 7015.23,7492.25 7009.98,7489.24C7004.73,7486.23 7000.84,7482.38 6998.33,7477.69C6995.62,7472.67 6994.27,7467.22 6994.27,7461.34C6994.27,7456.65 6995.13,7452.09 6996.84,7447.66C6998.56,7443.23 7001.16,7439.53 7004.62,7436.56C7008.1,7433.58 7012.21,7432.1 7016.97,7432.1C7019.68,7432.1 7021.62,7432.68 7022.81,7433.83C7024,7434.99 7024.6,7436.33 7024.6,7437.85C7024.6,7439.37 7024.12,7440.72 7023.16,7441.91C7022.2,7443.1 7020.9,7443.69 7019.25,7443.69C7017.59,7443.69 7016.39,7444.17 7015.63,7445.13C7014.87,7446.09 7014.49,7447.23 7014.49,7448.55C7014.49,7450.73 7015.43,7452.55 7017.31,7454C7019.2,7455.46 7022.02,7456.18 7025.79,7456.18C7031.21,7456.18 7035.8,7454.53 7039.57,7451.23C7044.65,7446.73 7047.2,7438.77 7047.2,7427.34C7047.2,7421.39 7046.14,7414.19 7044.03,7405.73C7041.98,7398 7040.95,7390.9 7040.95,7384.42C7040.95,7378.94 7041.98,7372.82 7044.03,7366.08C7039.14,7365.22 7034.58,7364.79 7030.35,7364.79C7025.59,7364.79 7021.89,7365.78 7019.25,7367.77C7014.95,7370.94 7012.8,7375.1 7012.8,7380.26C7012.8,7384.15 7014.06,7387.16 7016.57,7389.28C7017.76,7390.27 7019.15,7390.76 7020.73,7390.76C7021.53,7390.76 7022.34,7390.65 7023.16,7390.42C7023.99,7390.19 7024.73,7390.07 7025.39,7390.07C7027.9,7390.07 7029.16,7391.52 7029.16,7394.43C7029.16,7397.01 7028.07,7399.78 7025.89,7402.76C7021.92,7408.31 7016.4,7411.08 7009.33,7411.08C7003.98,7411.08 6999.65,7409.53 6996.35,7406.43C6991.72,7402.13 6989.41,7396.61 6989.41,7389.87C6989.41,7386.83 6990.09,7383.26 6991.44,7379.17C6992.8,7375.07 6995.74,7371.04 7000.26,7367.07C7004.79,7363.11 7010.89,7360.3 7018.55,7358.65C7022.12,7357.86 7026.05,7357.46 7030.35,7357.46C7035.3,7357.46 7040.76,7357.99 7046.7,7359.05C7050.53,7352.97 7055.54,7348.34 7061.72,7345.17C7067.9,7342 7074.09,7340.41 7080.3,7340.41C7086.32,7340.41 7090.98,7341.66 7094.28,7344.18C7098.38,7347.41 7100.43,7351.48 7100.43,7356.37C7100.43,7358.88 7099.67,7361.56 7098.15,7364.4C7096.63,7367.24 7093.85,7369.55 7089.82,7371.34C7087.24,7372.46 7084.27,7373.02 7080.9,7373.02C7077.46,7373.02 7072.31,7372.16 7065.44,7370.44C7064.44,7373.22 7063.95,7376.06 7063.95,7378.97C7063.95,7384.78 7066.53,7393.24 7071.68,7404.34L7074.85,7411.88C7078.49,7420.99 7080.3,7430.15 7080.3,7439.33C7080.3,7453.47 7076.6,7465.47 7069.2,7475.31C7059.95,7487.61 7047,7493.75 7030.35,7493.75ZM7079.02,7366.48C7081.53,7366.48 7083.71,7365.88 7085.56,7364.69C7088.07,7363.04 7089.32,7360.66 7089.32,7357.56C7089.32,7356.17 7088.96,7354.72 7088.23,7353.2C7087.51,7351.68 7086.15,7350.92 7084.17,7350.92C7080.6,7350.92 7077.45,7352.2 7074.7,7354.78C7071.96,7357.36 7069.96,7360.66 7068.71,7364.69C7073.66,7365.88 7077.1,7366.48 7079.02,7366.48Z" style="fill:rgb(49,29,132);stroke:rgb(49,29,132);stroke-width:0.55px;stroke-linejoin:round;stroke-miterlimit:2;"/>
        </g>
        <g transform="matrix(-1.53e-05,-225.363,-225.363,1.53e-05,7205.41,7459.93)">
            <path d="M0.719,-0.677C0.66,-0.55 0.533,-0.461 0.385,-0.458C0.398,-0.415 0.405,-0.367 0.405,-0.315C0.405,-0.255 0.395,-0.199 0.378,-0.151C0.379,-0.151 0.38,-0.151 0.38,-0.151C0.565,-0.151 0.715,-0.002 0.715,0.183C0.715,0.327 0.624,0.449 0.497,0.497C0.534,0.567 0.556,0.657 0.556,0.755C0.556,0.78 0.555,0.805 0.552,0.829C0.715,0.867 0.838,1.025 0.838,1.215C0.838,1.433 0.676,1.609 0.477,1.609C0.278,1.609 0.116,1.433 0.116,1.215C0.116,1.164 0.125,1.115 0.141,1.07C0.083,0.996 0.046,0.883 0.046,0.755C0.046,0.62 0.088,0.501 0.152,0.428C0.087,0.367 0.046,0.28 0.046,0.183C0.046,0.088 0.086,0.002 0.15,-0.059C0.102,-0.112 0.07,-0.207 0.07,-0.315C0.07,-0.409 0.094,-0.493 0.132,-0.548C0.051,-0.617 -0,-0.72 -0,-0.835C-0,-0.893 0.013,-0.948 0.037,-0.997C0.027,-1.036 0.021,-1.077 0.021,-1.12C0.021,-1.39 0.24,-1.609 0.511,-1.609C0.781,-1.609 1,-1.39 1,-1.12C1,-0.924 0.885,-0.755 0.719,-0.677Z" style="fill:url(#_Linear5);fill-rule:nonzero;"/>
        </g>
        <g transform="matrix(1,0,0,1,7457.76,7459.93)">
            <path d="M0,-225.363C-44.116,-225.363 -82.177,-199.459 -99.819,-162.034C-128.433,-148.827 -148.445,-120.169 -149.16,-86.757C-158.732,-89.625 -169.684,-91.256 -181.321,-91.256C-194.936,-91.256 -207.603,-89.019 -218.227,-85.184C-218.226,-85.357 -218.222,-85.528 -218.222,-85.701C-218.222,-127.335 -251.973,-161.087 -293.607,-161.087C-325.997,-161.087 -353.612,-140.657 -364.28,-111.983C-380.055,-120.342 -400.375,-125.378 -422.556,-125.378C-428.228,-125.378 -433.777,-125.046 -439.161,-124.416C-447.659,-161.229 -483.357,-188.86 -526.112,-188.86C-575.197,-188.86 -614.988,-152.444 -614.988,-107.523C-614.988,-62.602 -575.197,-26.186 -526.112,-26.186C-514.576,-26.186 -503.554,-28.198 -493.44,-31.858C-476.788,-18.725 -451.225,-10.315 -422.556,-10.315C-392.149,-10.315 -365.234,-19.774 -348.742,-34.297C-334.981,-19.544 -315.373,-10.315 -293.607,-10.315C-272.123,-10.315 -252.738,-19.303 -239.006,-33.723C-227.041,-23.009 -205.687,-15.87 -181.321,-15.87C-160.142,-15.87 -141.233,-21.263 -128.791,-29.711C-113.219,-11.526 -90.095,0 -64.275,0C-51.176,0 -38.77,-2.967 -27.69,-8.266C-18.841,-5.979 -9.563,-4.76 0,-4.76C60.918,-4.76 110.303,-54.144 110.303,-115.061C110.303,-175.979 60.918,-225.363 0,-225.363Z" style="fill:none;fill-rule:nonzero;stroke:white;stroke-width:8.73px;"/>
        </g>
    </g>
    <g id="Foreground-Stars" serif:id="Foreground Stars" transform="matrix(1,0,0,1,-6800,-6779)">
        <g id="stars">
            <g id="Foreground-Stars1" serif:id="Foreground Stars">
                <g transform="matrix(1.63807,0,0,1.63807,7002.27,7194.05)">
                    <path d="M0,-68.79L6.5,-39.709L36.165,-42.514L10.517,-27.347L22.352,0L0,-19.706L-22.351,0L-10.517,-27.347L-36.165,-42.514L-6.5,-39.709L0,-68.79Z" style="fill:rgb(255,236,63);fill-rule:nonzero;"/>
                    <path d="M1.489,-69.123L7.696,-41.355L36.021,-44.033C36.733,-44.101 37.396,-43.665 37.616,-42.986C37.837,-42.306 37.557,-41.564 36.942,-41.2L12.452,-26.718L23.753,-0.606C24.036,0.05 23.827,0.815 23.249,1.235C22.671,1.655 21.879,1.617 21.343,1.145L0,-17.671L-21.342,1.145C-21.878,1.617 -22.67,1.655 -23.248,1.235C-23.826,0.815 -24.035,0.05 -23.752,-0.606L-12.452,-26.718L-36.942,-41.2C-37.557,-41.564 -37.837,-42.306 -37.616,-42.986C-37.396,-43.665 -36.733,-44.101 -36.021,-44.033C-36.021,-44.033 -7.696,-41.355 -7.696,-41.355L-1.489,-69.123C-1.334,-69.82 -0.715,-70.316 -0,-70.316C0.715,-70.316 1.334,-69.82 1.489,-69.123ZM0,-68.79L-6.5,-39.709L-36.165,-42.514L-10.517,-27.347L-22.351,0L0,-19.706L22.352,0L10.517,-27.347L36.165,-42.514L6.5,-39.709L0,-68.79Z" style="fill:white;"/>
                </g>
                <g transform="matrix(1.25677,0,0,1.3608,7253.09,7009.54)">
                    <path d="M0,-69.759L6.592,-40.269L36.674,-43.113L10.666,-27.732L22.666,0L0,-19.983L-22.665,0L-10.665,-27.732L-36.675,-43.113L-6.591,-40.269L0,-69.759Z" style="fill:rgb(255,236,63);fill-rule:nonzero;"/>
                    <path d="M1.948,-70.13L8.177,-42.266L36.471,-44.941C37.388,-45.027 38.249,-44.522 38.552,-43.718C38.856,-42.915 38.522,-42.025 37.747,-41.566L13.123,-27.004L24.513,-0.682C24.86,0.121 24.555,1.038 23.78,1.522C23.005,2.006 21.969,1.926 21.292,1.329L0,-17.443L-21.291,1.329C-21.968,1.926 -23.004,2.006 -23.779,1.522C-24.554,1.038 -24.859,0.121 -24.512,-0.682L-13.122,-27.004L-37.748,-41.566C-38.523,-42.025 -38.857,-42.915 -38.553,-43.718C-38.25,-44.522 -37.389,-45.027 -36.472,-44.941L-8.176,-42.266L-1.948,-70.13C-1.757,-70.984 -0.944,-71.596 -0,-71.596C0.944,-71.596 1.757,-70.984 1.948,-70.13ZM0,-69.759L-6.591,-40.269L-36.675,-43.113L-10.665,-27.732L-22.665,0L0,-19.983L22.666,0L10.666,-27.732L36.674,-43.113L6.592,-40.269L0,-69.759Z" style="fill:white;"/>
                </g>
                <g transform="matrix(1.82934,0,0,1.96122,7419.92,7219.96)">
                    <path d="M0,-34.231L3.235,-19.761L17.996,-21.156L5.233,-13.608L11.123,0L0,-9.807L-11.122,0L-5.233,-13.608L-17.996,-21.156L-3.234,-19.761L0,-34.231Z" style="fill:rgb(255,236,63);fill-rule:nonzero;"/>
                    <path d="M1.338,-34.491L4.322,-21.145L17.858,-22.424C18.489,-22.484 19.08,-22.131 19.288,-21.573C19.495,-21.014 19.263,-20.396 18.728,-20.079L6.927,-13.1L12.39,-0.477C12.631,0.078 12.424,0.715 11.893,1.053C11.362,1.391 10.651,1.338 10.184,0.926L0,-8.053L-10.183,0.926C-10.65,1.338 -11.361,1.391 -11.892,1.053C-12.423,0.715 -12.63,0.079 -12.389,-0.477C-12.389,-0.477 -6.927,-13.1 -6.927,-13.1L-18.728,-20.079C-19.263,-20.396 -19.495,-21.014 -19.288,-21.573C-19.08,-22.131 -18.489,-22.484 -17.858,-22.424L-4.321,-21.145L-1.338,-34.491C-1.206,-35.082 -0.647,-35.506 -0,-35.506C0.647,-35.506 1.206,-35.082 1.338,-34.491ZM0,-34.231L-3.234,-19.761L-17.996,-21.156L-5.233,-13.608L-11.122,0L0,-9.807L11.123,0L5.233,-13.608L17.996,-21.156L3.235,-19.761L0,-34.231Z" style="fill:white;"/>
                </g>
            </g>
        </g>
    </g>
    <defs>
        <radialGradient id="_Radial1" cx="0" cy="0" r="1" gradientUnits="userSpaceOnUse" gradientTransform="matrix(1,0,0,-1,0,-4.0418e-06)"><stop offset="0" style="stop-color:white;stop-opacity:1"/><stop offset="0.05" style="stop-color:white;stop-opacity:1"/><stop offset="0.42" style="stop-color:rgb(204,226,241);stop-opacity:1"/><stop offset="1" style="stop-color:rgb(187,227,255);stop-opacity:1"/></radialGradient>
        <linearGradient id="_Linear2" x1="0" y1="0" x2="1" y2="0" gradientUnits="userSpaceOnUse" gradientTransform="matrix(1,0,0,-1,0,-5.25679e-06)"><stop offset="0" style="stop-color:rgb(120,183,227);stop-opacity:1"/><stop offset="0.9" style="stop-color:rgb(184,213,239);stop-opacity:1"/><stop offset="1" style="stop-color:rgb(184,213,239);stop-opacity:1"/></linearGradient>
        <linearGradient id="_Linear3" x1="0" y1="0" x2="1" y2="0" gradientUnits="userSpaceOnUse" gradientTransform="matrix(-1,0,0,1,0.999983,0)"><stop offset="0" style="stop-color:rgb(120,183,227);stop-opacity:1"/><stop offset="0.94" style="stop-color:rgb(198,224,243);stop-opacity:1"/><stop offset="1" style="stop-color:rgb(198,224,243);stop-opacity:1"/></linearGradient>
        <linearGradient id="_Linear4" x1="0" y1="0" x2="1" y2="0" gradientUnits="userSpaceOnUse" gradientTransform="matrix(1,0,0,-1,0,-7.58771e-06)"><stop offset="0" style="stop-color:rgb(120,183,227);stop-opacity:1"/><stop offset="0.25" style="stop-color:rgb(120,183,227);stop-opacity:1"/><stop offset="0.46" style="stop-color:rgb(184,213,239);stop-opacity:1"/><stop offset="0.78" style="stop-color:rgb(221,234,248);stop-opacity:1"/><stop offset="1" style="stop-color:rgb(221,234,248);stop-opacity:1"/></linearGradient>
        <linearGradient id="_Linear5" x1="0" y1="0" x2="1" y2="0" gradientUnits="userSpaceOnUse" gradientTransform="matrix(1,0,0,-1,0,-6.90452e-07)"><stop offset="0" style="stop-color:rgb(120,183,227);stop-opacity:1"/><stop offset="0.92" style="stop-color:white;stop-opacity:1"/><stop offset="1" style="stop-color:white;stop-opacity:1"/></linearGradient>
    </defs>
</svg>
